{
    "asset" : {
        "generator" : "Khronos glTF Blender I/O v1.1.45",
        "version" : "2.0"
    },
    "scene" : 0,
    "scenes" : [
        {
            "name" : "Scene",
            "nodes" : [
                0,
                1
            ]
        }
    ],
    "nodes" : [
        {
            "mesh" : 0,
            "name" : "Cube",
            "rotation" : [
                0.5,
                0,
                0,
                0.8660253882408142
            ],
            "translation" : [
                0,
                1.7976059913635254,
                0
            ]
        },
        {
            "mesh" : 1,
            "name" : "Cube.001",
            "rotation" : [
                0.5,
                0,
                0,
                0.8660253882408142
            ],
            "scale" : [
                1,
                -0.05204319581389427,
                -0.11409974098205566
            ],
            "translation" : [
                0,
                2.193809747695923,
                -0.3381703197956085
            ]
        }
    ],
    "materials" : [
        {
            "doubleSided" : true,
            "emissiveFactor" : [
                0,
                0,
                0
            ],
            "name" : "frame",
            "pbrMetallicRoughness" : {
                "baseColorFactor" : [
                    0.597223162651062,
                    0.038902319967746735,
                    0.038902319967746735,
                    1
                ],
                "metallicFactor" : 0,
                "roughnessFactor" : 0.5
            }
        },
        {
            "doubleSided" : true,
            "emissiveFactor" : [
                1,
                1,
                1
            ],
            "emissiveTexture" : {
                "index" : 0,
                "texCoord" : 0
            },
            "name" : "board",
            "pbrMetallicRoughness" : {}
        },
        {
            "doubleSided" : true,
            "emissiveFactor" : [
                0,
                0,
                0
            ],
            "name" : "support",
            "pbrMetallicRoughness" : {
                "baseColorFactor" : [
                    0.007524465676397085,
                    0.008088844828307629,
                    0.02421240322291851,
                    1
                ],
                "metallicFactor" : 0,
                "roughnessFactor" : 0.5
            }
        }
    ],
    "meshes" : [
        {
            "name" : "Cube.001",
            "primitives" : [
                {
                    "attributes" : {
                        "POSITION" : 0,
                        "NORMAL" : 1,
                        "TEXCOORD_0" : 2
                    },
                    "indices" : 3,
                    "material" : 0
                },
                {
                    "attributes" : {
                        "POSITION" : 4,
                        "NORMAL" : 5,
                        "TEXCOORD_0" : 6
                    },
                    "indices" : 7,
                    "material" : 1
                },
                {
                    "attributes" : {
                        "POSITION" : 8,
                        "NORMAL" : 9,
                        "TEXCOORD_0" : 10
                    },
                    "indices" : 11,
                    "material" : 2
                }
            ]
        },
        {
            "name" : "Cube.002",
            "primitives" : [
                {
                    "attributes" : {
                        "POSITION" : 12,
                        "NORMAL" : 13,
                        "TEXCOORD_0" : 14
                    },
                    "indices" : 15,
                    "material" : 2
                }
            ]
        }
    ],
    "textures" : [
        {
            "source" : 0
        }
    ],
    "images" : [
        {
            "bufferView" : 8,
            "mimeType" : "image/png",
            "name" : "menu-chalk-better"
        }
    ],
    "accessors" : [
        {
            "bufferView" : 0,
            "componentType" : 5126,
            "count" : 192,
            "max" : [
                1.5,
                0.06144857406616211,
                2
            ],
            "min" : [
                -1.5,
                -0.06144857406616211,
                -2
            ],
            "type" : "VEC3"
        },
        {
            "bufferView" : 1,
            "componentType" : 5126,
            "count" : 192,
            "type" : "VEC3"
        },
        {
            "bufferView" : 2,
            "componentType" : 5126,
            "count" : 192,
            "type" : "VEC2"
        },
        {
            "bufferView" : 3,
            "componentType" : 5123,
            "count" : 312,
            "type" : "SCALAR"
        },
        {
            "bufferView" : 4,
            "componentType" : 5126,
            "count" : 4,
            "max" : [
                1.3272550106048584,
                0.03338155895471573,
                1.8174291849136353
            ],
            "min" : [
                -1.3272550106048584,
                0.03338155895471573,
                -1.8174291849136353
            ],
            "type" : "VEC3"
        },
        {
            "bufferView" : 5,
            "componentType" : 5126,
            "count" : 4,
            "type" : "VEC3"
        },
        {
            "bufferView" : 6,
            "componentType" : 5126,
            "count" : 4,
            "type" : "VEC2"
        },
        {
            "bufferView" : 7,
            "componentType" : 5123,
            "count" : 6,
            "type" : "SCALAR"
        },
        {
            "bufferView" : 9,
            "componentType" : 5126,
            "count" : 28,
            "max" : [
                1.5,
                -0.06144857406616211,
                2
            ],
            "min" : [
                -1.5,
                -0.06144857406616211,
                -2
            ],
            "type" : "VEC3"
        },
        {
            "bufferView" : 10,
            "componentType" : 5126,
            "count" : 28,
            "type" : "VEC3"
        },
        {
            "bufferView" : 11,
            "componentType" : 5126,
            "count" : 28,
            "type" : "VEC2"
        },
        {
            "bufferView" : 12,
            "componentType" : 5123,
            "count" : 78,
            "type" : "SCALAR"
        },
        {
            "bufferView" : 13,
            "componentType" : 5126,
            "count" : 372,
            "max" : [
                1,
                33.829010009765625,
                1
            ],
            "min" : [
                -1,
                -1,
                -13.52226448059082
            ],
            "type" : "VEC3"
        },
        {
            "bufferView" : 14,
            "componentType" : 5126,
            "count" : 372,
            "type" : "VEC3"
        },
        {
            "bufferView" : 15,
            "componentType" : 5126,
            "count" : 372,
            "type" : "VEC2"
        },
        {
            "bufferView" : 16,
            "componentType" : 5123,
            "count" : 552,
            "type" : "SCALAR"
        }
    ],
    "bufferViews" : [
        {
            "buffer" : 0,
            "byteLength" : 2304,
            "byteOffset" : 0
        },
        {
            "buffer" : 0,
            "byteLength" : 2304,
            "byteOffset" : 2304
        },
        {
            "buffer" : 0,
            "byteLength" : 1536,
            "byteOffset" : 4608
        },
        {
            "buffer" : 0,
            "byteLength" : 624,
            "byteOffset" : 6144
        },
        {
            "buffer" : 0,
            "byteLength" : 48,
            "byteOffset" : 6768
        },
        {
            "buffer" : 0,
            "byteLength" : 48,
            "byteOffset" : 6816
        },
        {
            "buffer" : 0,
            "byteLength" : 32,
            "byteOffset" : 6864
        },
        {
            "buffer" : 0,
            "byteLength" : 12,
            "byteOffset" : 6896
        },
        {
            "buffer" : 0,
            "byteLength" : 625535,
            "byteOffset" : 6908
        },
        {
            "buffer" : 0,
            "byteLength" : 336,
            "byteOffset" : 632444
        },
        {
            "buffer" : 0,
            "byteLength" : 336,
            "byteOffset" : 632780
        },
        {
            "buffer" : 0,
            "byteLength" : 224,
            "byteOffset" : 633116
        },
        {
            "buffer" : 0,
            "byteLength" : 156,
            "byteOffset" : 633340
        },
        {
            "buffer" : 0,
            "byteLength" : 4464,
            "byteOffset" : 633496
        },
        {
            "buffer" : 0,
            "byteLength" : 4464,
            "byteOffset" : 637960
        },
        {
            "buffer" : 0,
            "byteLength" : 2976,
            "byteOffset" : 642424
        },
        {
            "buffer" : 0,
            "byteLength" : 1104,
            "byteOffset" : 645400
        }
    ],
    "buffers" : [
        {
            "byteLength" : 646504,
            "uri" : "data:application/octet-stream;base64,"
        }
    ]
}
